<svg xmlns="http://www.w3.org/2000/svg" version="1.0" viewBox="0 0 118 145">
  <path d="M41.3 16.9C23.5 22 11.2 36 7.3 55.7c-1.9 9.7-1.4 11.8 2.5 11l2.8-.6.2 6.5c.1 6.3 2.1 16.3 4.1 21.8 1 2.4 1.5 2.8 4 2.3 2.8-.6 3-.3 4.6 4.6 2.3 7 8.5 18.8 10.3 19.5.8.3 2.3 0 3.2-.6 1.5-.9 2.3-.3 5.5 4.3C48.4 130.2 57.2 139 59 139c1.8 0 10.6-8.8 14.5-14.5 3.2-4.6 4-5.2 5.5-4.3.9.6 2.4.9 3.2.6 1.8-.7 8-12.5 10.3-19.5 1.6-4.9 1.8-5.2 4.6-4.6 2.5.5 3 .1 4-2.3 2-5.5 4-15.8 4.2-22 .2-6.3.2-6.3 2.9-5.7 4 .8 4.5-1.6 2.5-11.1-4.1-20-16.3-33.7-34.5-38.7-8.8-2.5-26.2-2.5-34.9 0zM67.8 22c6.1 3.7 6.5 10.4 1.2 19.6-1.5 2.7-4.4 6.7-6.4 8.9l-3.6 4-3.6-4c-4.8-5.3-9.1-13-9.9-17.5-1.3-7.9 3.9-13 13.5-13 3.7 0 6.5.6 8.8 2zm-26.4 2.7c-.7 1.6-1.4 4.3-1.4 6 0 4.3 3.2 12.5 6.4 16.8l2.6 3.4-4.7 2.1c-8.6 3.8-31.4 9.6-32.7 8.3-.9-.9 2.6-12.7 5.4-18.4 3.9-7.6 10.1-13.9 17.7-17.8 7.5-3.9 8.6-3.9 6.7-.4zm41.7.4c11.2 5.6 19.1 16.3 22.4 30l1.4 6.2-5.5-.7c-6.1-.7-18.6-4-24.2-6.3-2-.8-4.7-1.9-6-2.4l-2.3-.9 2.6-3.4C74.8 43.2 78 35 78 30.7c0-1.7-.7-4.4-1.4-6-1.9-3.4-.9-3.4 6.5.4zM55 57.5c3 3.2 4.7 3.1 8 0l2.7-2.5 5.1 2.2 5.2 2.3-2.9 5c-1.6 2.8-5.4 7.5-8.5 10.5L59 80.4 53.4 75c-3.1-3-6.9-7.8-8.5-10.5l-2.9-5 4.8-2.2c6-2.7 5.5-2.7 8.2.2zm-16.2 6.8c.7 1.8 2.8 5.2 4.7 7.4 1.9 2.3 3.5 4.5 3.5 5C47 78.9 26.2 91 22.4 91c-3 0-6-24.6-3.1-25.4.9-.2 13.7-3.4 17.7-4.5.4 0 1.1 1.4 1.8 3.2zm51.2-.8c4.1 1 8.1 1.9 8.9 2.1 1.6.5 1.1 12.8-.9 20.7-1.2 4.5-1.4 4.8-3.9 4.2C87.4 88.8 71 79.1 71 76.8c0-.5 1.6-2.8 3.5-5.1 1.9-2.2 4-5.6 4.7-7.4.7-1.8 1.7-3.1 2.3-2.9.5.2 4.4 1.2 8.5 2.1zM59 86c.5 0 2.5-1.3 4.3-3l3.4-2.9 2.4 2.5 2.3 2.5-2.2 4.2c-1.3 2.3-4.1 6.2-6.3 8.7l-3.9 4.5-3.9-4.5c-2.2-2.5-5-6.4-6.3-8.7l-2.2-4.2 2.3-2.5 2.4-2.5 3.4 2.9c1.8 1.7 3.8 3 4.3 3zm-16 3.4c0 .8 2.2 4.4 4.9 8l5 6.6-4.2 3.3c-5.9 4.7-10.7 8-11.2 7.5-2.2-2.2-9.1-19.5-8.2-20.5.7-.7 12-6.1 13-6.2.4-.1.7.6.7 1.3zm39.3 1.7c3.4 1.7 6.4 3.3 6.5 3.5.9.7-6.4 18.3-8.3 20.2-.5.5-5.3-2.8-11.2-7.5l-4.3-3.4 4.2-5.2c2.2-2.9 4.5-6.4 5-8 .6-1.5 1.2-2.7 1.4-2.7.3 0 3.3 1.4 6.7 3.1zm-15.7 20.7c2.7 2.3 5.3 4.2 5.7 4.2 1.1 0-4.4 7.9-8.7 12.2-2 2.1-4.3 3.8-5 3.8-1.3 0-7-6.4-11.3-12.5l-2.1-3.1 3.2-2.2c1.8-1.2 4.2-3.3 5.4-4.5 3.2-3.4 7.2-2.7 12.8 2.1z"/>
  <style>
        path { fill: #000; }
        @media (prefers-color-scheme: dark) {
            path { fill: #FFF; }
        }
    </style>
</svg>
